<svg width="480" height="270" viewBox="0 0 480 270" fill="none" xmlns="http://www.w3.org/2000/svg">
<path d="M216 135.219V131.256C218.313 131.256 219.665 130.136 219.665 127.889V121.52C219.665 118.75 221.647 117 224.483 117H227.022V120.897H225.604C224.808 120.897 224.285 121.394 224.285 122.514V128.585C224.285 131.157 223.131 132.549 220.984 133.238C223.131 133.934 224.285 135.319 224.285 137.89V143.961C224.285 145.081 224.815 145.579 225.604 145.579H227.022V149.482H224.483C221.647 149.482 219.665 147.733 219.665 144.962V138.593C219.665 136.346 218.313 135.219 216 135.219Z" fill="#F4F4F4"/>
</svg>
