<svg width="480" height="270" viewBox="0 0 480 270" fill="none" xmlns="http://www.w3.org/2000/svg">
<path d="M199 137.219V133.256C201.313 133.256 202.665 132.136 202.665 129.889V110.52C202.665 107.75 204.647 106 207.483 106H210.022V109.897H208.604C207.808 109.897 207.285 110.394 207.285 111.514V130.585C207.285 133.157 206.131 134.549 203.984 135.238C206.131 135.934 207.285 137.319 207.285 139.89V158.961C207.285 160.081 207.815 160.579 208.604 160.579H210.022V164.482H207.483C204.647 164.482 202.665 162.733 202.665 159.962V140.593C202.665 138.346 201.313 137.219 199 137.219Z" fill="#F4F4F4"/>
</svg>
