<svg width="480" height="270" viewBox="0 0 480 270" fill="none" xmlns="http://www.w3.org/2000/svg">
<path d="M271.538 164.476H269V160.579H270.418C271.214 160.579 271.737 160.081 271.737 158.961V139.89C271.737 137.319 272.89 135.927 275.038 135.238C272.89 134.542 271.737 133.157 271.737 130.585V111.514C271.737 110.394 271.207 109.897 270.418 109.897H269V106H271.538C274.375 106 276.357 107.75 276.357 110.52V129.889C276.357 132.136 277.709 133.256 280.022 133.256V137.219C277.709 137.219 276.357 138.34 276.357 140.586V159.956C276.357 162.726 274.375 164.476 271.538 164.476Z" fill="#F4F4F4"/>
</svg>
