<svg width="118" height="26" viewBox="0 0 118 26" fill="none" xmlns="http://www.w3.org/2000/svg">
<g clip-path="url(#clip0_6533_3856)">
<path d="M21.4602 24.0227L20.0742 24.0227L20.0742 21.8987H20.8482C21.2802 21.8987 21.5682 21.6287 21.5682 21.0167L21.5682 17.7047C21.5682 16.3007 22.1982 15.5447 23.3682 15.1667C22.1982 14.7887 21.5682 14.0327 21.5682 12.6287L21.5682 9.31667C21.5682 8.70467 21.2802 8.43467 20.8482 8.43467L20.0742 8.43467L20.0742 6.31067L21.4602 6.31067C23.0082 6.31067 24.0882 7.26467 24.0882 8.77667L24.0882 12.2507C24.0882 13.4747 24.8262 14.0867 26.0862 14.0867L26.0862 16.2467C24.8262 16.2467 24.0882 16.8587 24.0882 18.0827L24.0882 21.5567C24.0882 23.0687 23.0082 24.0227 21.4602 24.0227Z" fill="white"/>
<path d="M0.0620117 16.2467L0.0620117 14.0867C1.32201 14.0867 2.06001 13.4747 2.06001 12.2507L2.06001 8.77667C2.06001 7.26467 3.14001 6.31067 4.68801 6.31067L6.07401 6.31067L6.07401 8.43467L5.30001 8.43467C4.86801 8.43467 4.58001 8.70467 4.58001 9.31667L4.58001 12.6287C4.58001 14.0327 3.95001 14.7887 2.78001 15.1667C3.95001 15.5447 4.58001 16.3007 4.58001 17.7047L4.58001 21.0167C4.58001 21.6287 4.86801 21.8987 5.30001 21.8987L6.07401 21.8987L6.07401 24.0227L4.68801 24.0227C3.14001 24.0227 2.06001 23.0687 2.06001 21.5567L2.06001 18.0827C2.06001 16.8587 1.32201 16.2467 0.0620117 16.2467Z" fill="white"/>
<path fill-rule="evenodd" clip-rule="evenodd" d="M13.0744 0.189331L17.6245 4.73935L15.5031 6.86067L13.0744 4.43197L10.6457 6.86067L8.52441 4.73935L13.0744 0.189331Z" fill="#02C382"/>
<path fill-rule="evenodd" clip-rule="evenodd" d="M13.0747 6.42322L18.4971 11.8456L16.3757 13.9669L13.0747 10.6659L9.77366 13.9669L7.65234 11.8456L13.0747 6.42322Z" fill="#02C382"/>
<path fill-rule="evenodd" clip-rule="evenodd" d="M13.0745 12.6576L19.3692 18.9523L17.2479 21.0736L13.0745 16.9002L8.90111 21.0736L6.77979 18.9523L13.0745 12.6576Z" fill="#02C382"/>
<path fill-rule="evenodd" clip-rule="evenodd" d="M11.5745 25.8107V20.1404H14.5745V25.8107H11.5745Z" fill="white"/>
<path d="M116.228 19.6688H113.456V12.9728H111.746V10.6688H113.456V7.87878H116.228V10.6688H117.938V12.9728H116.228V19.6688Z" fill="white"/>
<path d="M103.295 16.8247H105.923C105.959 17.4547 106.427 17.8327 107.273 17.8327C108.137 17.8327 108.533 17.5267 108.533 17.0587C108.533 16.7887 108.389 16.5007 107.723 16.3567L106.067 15.9967C104.411 15.6367 103.601 14.9167 103.601 13.3327C103.601 11.4607 105.203 10.3807 107.363 10.3807C109.451 10.3807 110.909 11.6047 110.909 13.4227H108.281C108.281 12.8107 107.903 12.3967 107.237 12.3967C106.607 12.3967 106.211 12.7207 106.211 13.2067C106.211 13.6207 106.553 13.8547 107.183 13.9987L108.857 14.3587C110.333 14.6827 111.143 15.3667 111.143 16.8067C111.143 18.7327 109.505 19.9027 107.165 19.9027C104.789 19.9027 103.295 18.6427 103.295 16.8247Z" fill="white"/>
<path d="M97.766 19.9027C95.048 19.9027 93.104 17.9227 93.104 15.1507C93.104 12.3427 94.994 10.3807 97.712 10.3807C100.538 10.3807 102.302 12.2347 102.302 15.1687V15.8707L95.768 15.9067C95.93 17.0947 96.596 17.6527 97.82 17.6527C98.864 17.6527 99.602 17.2747 99.8 16.6267H102.338C102.014 18.6247 100.232 19.9027 97.766 19.9027ZM97.73 12.6307C96.632 12.6307 96.02 13.1167 95.804 14.1967H99.548C99.548 13.2427 98.846 12.6307 97.73 12.6307Z" fill="white"/>
<path d="M92.4518 10.6688V13.2788H91.5698C89.9858 13.2788 89.0318 13.9808 89.0318 15.7628V19.6688H86.2598V10.6868H88.8698L89.0138 12.0188C89.3918 11.1368 90.1838 10.5428 91.3898 10.5428C91.7138 10.5428 92.0738 10.5788 92.4518 10.6688Z" fill="white"/>
<path d="M74.7349 15.1508C74.7349 12.3068 76.8229 10.3988 79.7029 10.3988C82.5649 10.3988 84.6529 12.3068 84.6529 15.1508C84.6529 17.9948 82.5649 19.8848 79.7029 19.8848C76.8229 19.8848 74.7349 17.9948 74.7349 15.1508ZM77.5249 15.1328C77.5249 16.5008 78.4069 17.4008 79.7029 17.4008C80.9809 17.4008 81.8629 16.5008 81.8629 15.1328C81.8629 13.7828 80.9809 12.8828 79.7029 12.8828C78.4069 12.8828 77.5249 13.7828 77.5249 15.1328Z" fill="white"/>
<path d="M68.0645 10.669H69.3064V9.94905C69.3064 7.26705 70.7105 6.09705 72.9965 6.09705C73.3745 6.09705 73.8065 6.13305 74.2385 6.20505V8.58104H73.4645C72.3305 8.58104 72.0785 9.17505 72.0785 9.94905V10.669H74.2385V12.973H72.0785V19.669H69.3064V12.973H68.0645V10.669Z" fill="white"/>
<path d="M61.4681 19.9027C59.5601 19.9027 58.3721 18.7867 58.3721 17.0227C58.3721 15.3667 59.5421 14.3407 61.7021 14.1787L64.2221 13.9807V13.8367C64.2221 12.9547 63.6821 12.4867 62.6921 12.4867C61.5221 12.4867 60.8921 12.9367 60.8921 13.7467H58.5881C58.5881 11.7127 60.2621 10.3807 62.8361 10.3807C65.4461 10.3807 66.9221 11.8387 66.9221 14.4127V19.6687H64.4741L64.2941 18.4807C64.0061 19.3087 62.8181 19.9027 61.4681 19.9027ZM62.4401 17.8507C63.5021 17.8507 64.2401 17.3287 64.2401 16.3027V15.8167L62.8361 15.9427C61.6301 16.0507 61.1981 16.3207 61.1981 16.8967C61.1981 17.5447 61.5941 17.8507 62.4401 17.8507Z" fill="white"/>
<path d="M55.7945 19.6688H53.0225V12.9728H51.3125V10.6688H53.0225V7.87878H55.7945V10.6688H57.5045V12.9728H55.7945V19.6688Z" fill="white"/>
<path d="M44.804 19.9027C42.896 19.9027 41.708 18.7867 41.708 17.0227C41.708 15.3667 42.878 14.3407 45.038 14.1787L47.558 13.9807V13.8367C47.558 12.9547 47.018 12.4867 46.028 12.4867C44.858 12.4867 44.228 12.9367 44.228 13.7467H41.924C41.924 11.7127 43.598 10.3807 46.172 10.3807C48.782 10.3807 50.258 11.8387 50.258 14.4127V19.6687H47.81L47.63 18.4807C47.342 19.3087 46.154 19.9027 44.804 19.9027ZM45.776 17.8507C46.838 17.8507 47.576 17.3287 47.576 16.3027V15.8167L46.172 15.9427C44.966 16.0507 44.534 16.3207 44.534 16.8967C44.534 17.5447 44.93 17.8507 45.776 17.8507Z" fill="white"/>
<path d="M34.3524 19.903C31.7604 19.903 30.0864 18.067 30.0864 15.223C30.0864 12.361 31.7964 10.381 34.5324 10.381C35.6484 10.381 36.7104 10.831 37.2324 11.497V6.09705H40.0044V19.669H37.3944L37.2504 18.517C36.7644 19.345 35.6484 19.903 34.3524 19.903ZM35.0184 17.365C36.3144 17.365 37.2144 16.465 37.2144 15.115C37.2144 13.765 36.3144 12.865 35.0184 12.865C33.7044 12.865 32.8764 13.783 32.8764 15.115C32.8764 16.447 33.7044 17.365 35.0184 17.365Z" fill="white"/>
</g>
<defs>
<clipPath id="clip0_6533_3856">
<rect width="118" height="26" fill="white"/>
</clipPath>
</defs>
</svg>
