<?xml version="1.0" encoding="UTF-8"?>
<svg width="47px" height="44px" viewBox="0 0 47 44" version="1.1" xmlns="http://www.w3.org/2000/svg" xmlns:xlink="http://www.w3.org/1999/xlink">
    <title>Star</title>
    <g id="Page-1" stroke="none" stroke-width="1" fill="none" fill-rule="evenodd">
        <path d="M33.084375,43.3615581 L39.52875,38.9215581 L34.78875,31.7571831 C33.70875,30.0934331 32.66875,28.7315581 31.66875,27.6715581 C30.66875,26.6115581 29.524375,25.5615581 28.235625,24.5215581 C29.595625,24.3378081 31.07375,24.1018706 32.67,23.8137456 C34.26625,23.5256206 35.9925,23.0496831 37.84875,22.3859331 L46.044375,19.4928081 L43.2,12.1128081 L35.364375,14.7171831 C33.315625,15.4046831 31.6275,16.1165581 30.3,16.8528081 C28.9725,17.5890581 27.7125,18.3690581 26.52,19.1928081 C26.84,17.7853081 27.0940625,16.2974956 27.2821875,14.7293706 C27.4703125,13.1612456 27.564375,11.3690581 27.564375,9.3528081 L27.564375,0.832808099 L19.69125,0.832808099 L19.69125,9.3528081 C19.69125,11.3690581 19.79125,13.1412456 19.99125,14.6693706 C20.19125,16.1974956 20.45125,17.7053081 20.77125,19.1928081 C19.5475,18.3128081 18.2878125,17.5187456 16.9921875,16.8106206 C15.6965625,16.1024956 14.0125,15.4046831 11.94,14.7171831 L4.18875,12.1484331 L1.33125,19.4928081 L9.40875,22.3859331 C11.2,23.0009331 12.8315625,23.4584331 14.3034375,23.7584331 C15.7753125,24.0584331 17.3475,24.3128081 19.02,24.5215581 C17.8125,25.5615581 16.6965625,26.6034331 15.6721875,27.6471831 C14.6478125,28.6909331 13.54,30.0609331 12.34875,31.7571831 L7.44,38.9215581 L13.92,43.3615581 L19.03125,36.5328081 C20.08,35.1253081 20.9784375,33.7015581 21.7265625,32.2615581 C22.4746875,30.8215581 23.060625,29.3496831 23.484375,27.8459331 C23.988125,29.0934331 24.598125,30.4212456 25.314375,31.8293706 C26.030625,33.2374956 27.000625,34.8053081 28.224375,36.5328081 L33.084375,43.3615581 Z" id="Star" stroke="#D0021B" fill="#D0021B"></path>
    </g>
</svg>