<svg width="480" height="270" viewBox="0 0 480 270" fill="none" xmlns="http://www.w3.org/2000/svg">
<path d="M236.24 135.112L234 134.312L234.896 132.008L237.04 132.712C237.573 132.883 238 133.064 238.32 133.256C238.64 133.448 238.96 133.661 239.28 133.896C239.195 133.512 239.12 133.128 239.056 132.744C239.013 132.339 238.992 131.88 238.992 131.368V129H241.456V131.368C241.456 131.88 241.424 132.339 241.36 132.744C241.317 133.149 241.253 133.533 241.168 133.896C241.467 133.683 241.787 133.48 242.128 133.288C242.469 133.075 242.907 132.883 243.44 132.712L245.616 132.008L246.48 134.312L244.208 135.112C243.739 135.283 243.291 135.4 242.864 135.464C242.459 135.528 242.075 135.581 241.712 135.624C242.075 135.901 242.384 136.179 242.64 136.456C242.917 136.712 243.184 137.043 243.44 137.448L244.752 139.464L242.736 140.84L241.392 138.952C241.072 138.504 240.816 138.099 240.624 137.736C240.453 137.373 240.304 137.032 240.176 136.712C240.069 137.139 239.909 137.544 239.696 137.928C239.504 138.312 239.291 138.653 239.056 138.952L237.616 140.84L235.6 139.464L236.976 137.448C237.275 137.021 237.552 136.68 237.808 136.424C238.085 136.168 238.395 135.901 238.736 135.624C238.309 135.581 237.904 135.528 237.52 135.464C237.157 135.4 236.731 135.283 236.24 135.112Z" fill="#02C382"/>
</svg>
