<svg width="480" height="270" viewBox="0 0 480 270" fill="none" xmlns="http://www.w3.org/2000/svg">
<path d="M164.74 134.597C164.74 134.096 164.918 133.686 165.273 133.368C165.629 133.051 166.161 132.862 166.872 132.804L168.483 132.678V132.591C168.483 132.022 168.158 131.738 167.506 131.738C167.134 131.738 166.847 131.805 166.644 131.938C166.449 132.072 166.352 132.269 166.352 132.528H164.88C164.88 131.884 165.125 131.37 165.616 130.985C166.115 130.601 166.775 130.408 167.595 130.408C168.433 130.408 169.075 130.63 169.524 131.073C169.98 131.508 170.209 132.135 170.209 132.954V134.61C170.209 135.062 170.395 135.287 170.767 135.287C171.063 135.287 171.3 135.087 171.478 134.685C171.664 134.284 171.757 133.761 171.757 133.117C171.757 132.54 171.655 132.01 171.452 131.525C171.249 131.04 170.957 130.621 170.577 130.27C170.205 129.911 169.76 129.635 169.245 129.442C168.737 129.25 168.179 129.154 167.57 129.154C166.944 129.154 166.364 129.263 165.832 129.48C165.307 129.689 164.85 129.99 164.461 130.383C164.072 130.776 163.772 131.236 163.561 131.763C163.349 132.29 163.243 132.867 163.243 133.494C163.243 134.121 163.349 134.702 163.561 135.237C163.78 135.764 164.085 136.224 164.474 136.617C164.863 137.01 165.32 137.311 165.844 137.52C166.369 137.737 166.944 137.846 167.57 137.846C168.416 137.846 169.245 137.587 170.057 137.068L170.577 138.135C169.672 138.712 168.669 139 167.57 139C166.766 139 166.026 138.862 165.349 138.586C164.673 138.319 164.081 137.938 163.573 137.445C163.074 136.943 162.685 136.358 162.406 135.689C162.135 135.02 162 134.288 162 133.494C162 132.699 162.14 131.972 162.419 131.311C162.698 130.642 163.087 130.061 163.586 129.568C164.085 129.066 164.673 128.681 165.349 128.414C166.035 128.138 166.775 128 167.57 128C168.356 128 169.08 128.13 169.739 128.389C170.399 128.64 170.97 128.995 171.452 129.455C171.943 129.915 172.323 130.458 172.594 131.086C172.865 131.704 173 132.382 173 133.117C173 133.795 172.899 134.38 172.696 134.873C172.493 135.367 172.201 135.747 171.82 136.015C171.448 136.282 171 136.416 170.475 136.416C169.579 136.416 169.012 136.078 168.775 135.4C168.674 135.685 168.437 135.927 168.065 136.128C167.701 136.32 167.295 136.416 166.847 136.416C166.187 136.416 165.671 136.257 165.299 135.94C164.927 135.613 164.74 135.166 164.74 134.597ZM166.542 134.522C166.542 134.731 166.606 134.886 166.732 134.986C166.868 135.078 167.071 135.124 167.341 135.124C167.705 135.124 167.988 135.041 168.191 134.873C168.394 134.698 168.496 134.455 168.496 134.146V133.845L167.595 133.92C167.198 133.954 166.923 134.016 166.77 134.108C166.618 134.2 166.542 134.338 166.542 134.522Z" fill="#D86C6C"/>
<path d="M304.74 120.597C304.74 120.096 304.918 119.686 305.273 119.368C305.629 119.051 306.161 118.862 306.872 118.804L308.483 118.678V118.591C308.483 118.022 308.158 117.738 307.506 117.738C307.134 117.738 306.847 117.805 306.644 117.938C306.449 118.072 306.352 118.269 306.352 118.528H304.88C304.88 117.884 305.125 117.37 305.616 116.985C306.115 116.601 306.775 116.408 307.595 116.408C308.433 116.408 309.075 116.63 309.524 117.073C309.98 117.508 310.209 118.135 310.209 118.954V120.61C310.209 121.062 310.395 121.287 310.767 121.287C311.063 121.287 311.3 121.087 311.478 120.685C311.664 120.284 311.757 119.761 311.757 119.117C311.757 118.54 311.655 118.01 311.452 117.525C311.249 117.04 310.957 116.621 310.577 116.27C310.205 115.911 309.76 115.635 309.245 115.442C308.737 115.25 308.179 115.154 307.57 115.154C306.944 115.154 306.364 115.263 305.832 115.48C305.307 115.689 304.85 115.99 304.461 116.383C304.072 116.776 303.772 117.236 303.561 117.763C303.349 118.29 303.243 118.867 303.243 119.494C303.243 120.121 303.349 120.702 303.561 121.237C303.78 121.764 304.085 122.224 304.474 122.617C304.863 123.01 305.32 123.311 305.844 123.52C306.369 123.737 306.944 123.846 307.57 123.846C308.416 123.846 309.245 123.587 310.057 123.068L310.577 124.135C309.672 124.712 308.669 125 307.57 125C306.766 125 306.026 124.862 305.349 124.586C304.673 124.319 304.081 123.938 303.573 123.445C303.074 122.943 302.685 122.358 302.406 121.689C302.135 121.02 302 120.288 302 119.494C302 118.699 302.14 117.972 302.419 117.311C302.698 116.642 303.087 116.061 303.586 115.568C304.085 115.066 304.673 114.681 305.349 114.414C306.035 114.138 306.775 114 307.57 114C308.356 114 309.08 114.13 309.739 114.389C310.399 114.64 310.97 114.995 311.452 115.455C311.943 115.915 312.323 116.458 312.594 117.086C312.865 117.704 313 118.382 313 119.117C313 119.795 312.899 120.38 312.696 120.873C312.493 121.367 312.201 121.747 311.82 122.015C311.448 122.282 311 122.416 310.475 122.416C309.579 122.416 309.012 122.078 308.775 121.4C308.674 121.685 308.437 121.927 308.065 122.128C307.701 122.32 307.295 122.416 306.847 122.416C306.187 122.416 305.671 122.257 305.299 121.94C304.927 121.613 304.74 121.166 304.74 120.597ZM306.542 120.522C306.542 120.731 306.606 120.886 306.732 120.986C306.868 121.078 307.071 121.124 307.341 121.124C307.705 121.124 307.988 121.041 308.191 120.873C308.394 120.698 308.496 120.455 308.496 120.146V119.845L307.595 119.92C307.198 119.954 306.923 120.016 306.77 120.108C306.618 120.2 306.542 120.338 306.542 120.522Z" fill="#D86C6C"/>
<path d="M172.214 109L170.488 118H168.667L170.393 109H172.214ZM175.202 109L173.488 118H171.667L173.381 109H175.202ZM168.786 111.153H176L175.643 112.904H168.429L168.786 111.153ZM168.357 114.108H175.607L175.262 115.859H168L168.357 114.108Z" fill="#D86C6C"/>
<path d="M305.214 143L303.488 152H301.667L303.393 143H305.214ZM308.202 143L306.488 152H304.667L306.381 143H308.202ZM301.786 145.153H309L308.643 146.904H301.429L301.786 145.153ZM301.357 148.108H308.607L308.262 149.859H301L301.357 148.108Z" fill="#D86C6C"/>
<path d="M172.608 146.042H174C174 146.409 173.928 146.741 173.784 147.037C173.64 147.333 173.436 147.57 173.172 147.746C172.908 147.915 172.592 148 172.224 148C171.944 148 171.696 147.965 171.48 147.894C171.264 147.824 171.068 147.743 170.892 147.651C170.724 147.552 170.56 147.467 170.4 147.397C170.248 147.326 170.092 147.291 169.932 147.291C169.708 147.291 169.56 147.358 169.488 147.492C169.424 147.619 169.392 147.76 169.392 147.915H168C168 147.563 168.072 147.242 168.216 146.952C168.36 146.663 168.564 146.434 168.828 146.265C169.1 146.088 169.416 146 169.776 146C170.056 146 170.3 146.035 170.508 146.106C170.716 146.176 170.908 146.261 171.084 146.36C171.26 146.451 171.424 146.533 171.576 146.603C171.736 146.674 171.9 146.709 172.068 146.709C172.292 146.709 172.436 146.646 172.5 146.519C172.572 146.384 172.608 146.226 172.608 146.042Z" fill="#D86C6C"/>
<path d="M309.667 135.203H308.301C308.244 134.861 308.19 134.462 308.14 134.008C308.097 133.554 308.061 133.068 308.032 132.55C308.011 132.032 308 131.514 308 130.996V129H310V130.996C310 131.53 309.986 132.06 309.957 132.586C309.928 133.104 309.889 133.59 309.839 134.044C309.789 134.49 309.731 134.876 309.667 135.203ZM308.989 138C308.717 138 308.484 137.896 308.29 137.689C308.097 137.474 308 137.219 308 136.924C308 136.622 308.097 136.367 308.29 136.159C308.484 135.944 308.717 135.837 308.989 135.837C309.254 135.837 309.484 135.944 309.677 136.159C309.878 136.367 309.978 136.622 309.978 136.924C309.978 137.219 309.878 137.474 309.677 137.689C309.484 137.896 309.254 138 308.989 138Z" fill="#D86C6C"/>
<path d="M305.667 165.203H304.301C304.244 164.861 304.19 164.462 304.14 164.008C304.097 163.554 304.061 163.068 304.032 162.55C304.011 162.032 304 161.514 304 160.996V159H306V160.996C306 161.53 305.986 162.06 305.957 162.586C305.928 163.104 305.889 163.59 305.839 164.044C305.789 164.49 305.731 164.876 305.667 165.203ZM304.989 168C304.717 168 304.484 167.896 304.29 167.689C304.097 167.474 304 167.219 304 166.924C304 166.622 304.097 166.367 304.29 166.159C304.484 165.944 304.717 165.837 304.989 165.837C305.254 165.837 305.484 165.944 305.677 166.159C305.878 166.367 305.978 166.622 305.978 166.924C305.978 167.219 305.878 167.474 305.677 167.689C305.484 167.896 305.254 168 304.989 168Z" fill="#D86C6C"/>
<path d="M176.667 161.203H175.301C175.244 160.861 175.19 160.462 175.14 160.008C175.097 159.554 175.061 159.068 175.032 158.55C175.011 158.032 175 157.514 175 156.996V155H177V156.996C177 157.53 176.986 158.06 176.957 158.586C176.928 159.104 176.889 159.59 176.839 160.044C176.789 160.49 176.731 160.876 176.667 161.203ZM175.989 164C175.717 164 175.484 163.896 175.29 163.689C175.097 163.474 175 163.219 175 162.924C175 162.622 175.097 162.367 175.29 162.159C175.484 161.944 175.717 161.837 175.989 161.837C176.254 161.837 176.484 161.944 176.677 162.159C176.878 162.367 176.978 162.622 176.978 162.924C176.978 163.219 176.878 163.474 176.677 163.689C176.484 163.896 176.254 164 175.989 164Z" fill="#D86C6C"/>
<path d="M176.667 125.203H175.301C175.244 124.861 175.19 124.462 175.14 124.008C175.097 123.554 175.061 123.068 175.032 122.55C175.011 122.032 175 121.514 175 120.996V119H177V120.996C177 121.53 176.986 122.06 176.957 122.586C176.928 123.104 176.889 123.59 176.839 124.044C176.789 124.49 176.731 124.876 176.667 125.203ZM175.989 128C175.717 128 175.484 127.896 175.29 127.689C175.097 127.474 175 127.219 175 126.924C175 126.622 175.097 126.367 175.29 126.159C175.484 125.944 175.717 125.837 175.989 125.837C176.254 125.837 176.484 125.944 176.677 126.159C176.878 126.367 176.978 126.622 176.978 126.924C176.978 127.219 176.878 127.474 176.677 127.689C176.484 127.896 176.254 128 175.989 128Z" fill="#D86C6C"/>
<path d="M180.667 102.203H179.301C179.244 101.861 179.19 101.462 179.14 101.008C179.097 100.554 179.061 100.068 179.032 99.5498C179.011 99.0319 179 98.5139 179 97.996V96H181V97.996C181 98.5299 180.986 99.0598 180.957 99.5857C180.928 100.104 180.889 100.59 180.839 101.044C180.789 101.49 180.731 101.876 180.667 102.203ZM179.989 105C179.717 105 179.484 104.896 179.29 104.689C179.097 104.474 179 104.219 179 103.924C179 103.622 179.097 103.367 179.29 103.159C179.484 102.944 179.717 102.837 179.989 102.837C180.254 102.837 180.484 102.944 180.677 103.159C180.878 103.367 180.978 103.622 180.978 103.924C180.978 104.219 180.878 104.474 180.677 104.689C180.484 104.896 180.254 105 179.989 105Z" fill="#D86C6C"/>
<path d="M302.518 107.489H300.899V107.243C300.899 106.859 300.961 106.538 301.085 106.28C301.217 106.014 301.381 105.784 301.575 105.588C301.777 105.392 301.975 105.216 302.169 105.06C302.332 104.927 302.48 104.798 302.612 104.673C302.751 104.548 302.86 104.411 302.938 104.262C303.023 104.106 303.066 103.934 303.066 103.746C303.066 103.519 303.023 103.327 302.938 103.171C302.86 103.014 302.744 102.897 302.588 102.819C302.441 102.733 302.254 102.69 302.029 102.69C301.796 102.69 301.59 102.744 301.412 102.854C301.241 102.963 301.109 103.12 301.016 103.323C300.922 103.519 300.876 103.754 300.876 104.027H299C299 103.425 299.128 102.897 299.384 102.443C299.649 101.99 300.01 101.638 300.468 101.387C300.934 101.129 301.47 101 302.076 101C302.689 101 303.214 101.106 303.649 101.317C304.083 101.52 304.417 101.817 304.65 102.209C304.883 102.6 305 103.069 305 103.617C305 104.039 304.922 104.399 304.767 104.696C304.612 104.986 304.417 105.228 304.184 105.424C303.959 105.619 303.734 105.795 303.509 105.952C303.245 106.132 303.012 106.319 302.81 106.515C302.616 106.711 302.518 106.953 302.518 107.243V107.489ZM301.761 110C301.466 110 301.214 109.898 301.004 109.695C300.794 109.484 300.689 109.233 300.689 108.944C300.689 108.647 300.794 108.396 301.004 108.193C301.214 107.982 301.466 107.876 301.761 107.876C302.056 107.876 302.309 107.982 302.518 108.193C302.728 108.404 302.833 108.654 302.833 108.944C302.833 109.226 302.728 109.472 302.518 109.683C302.309 109.894 302.056 110 301.761 110Z" fill="#D86C6C"/>
</svg>
