<svg width="480" height="270" viewBox="0 0 480 270" fill="none" xmlns="http://www.w3.org/2000/svg">
<path d="M169.376 150.215H166.838V146.318H168.256C169.052 146.318 169.575 145.821 169.575 144.701V138.63C169.575 136.058 170.728 134.666 172.876 133.977C170.728 133.281 169.575 131.896 169.575 129.324V123.253C169.575 122.133 169.045 121.636 168.256 121.636H166.838V117.739H169.376C172.213 117.739 174.195 119.489 174.195 122.259V128.629C174.195 130.875 175.547 131.995 177.86 131.995V135.959C175.547 135.959 174.195 137.079 174.195 139.326V145.695C174.195 148.465 172.213 150.215 169.376 150.215Z" fill="#F4F4F4"/>
<path d="M130.14 135.952V131.989C132.453 131.989 133.805 130.868 133.805 128.622V122.253C133.805 119.482 135.787 117.732 138.624 117.732H141.162V121.629H139.744C138.949 121.629 138.425 122.127 138.425 123.247V129.318C138.425 131.889 137.272 133.281 135.124 133.97C137.272 134.666 138.425 136.051 138.425 138.623V144.694C138.425 145.814 138.955 146.311 139.744 146.311H141.162V150.215H138.624C135.787 150.215 133.805 148.465 133.805 145.695V139.325C133.805 137.079 132.453 135.952 130.14 135.952Z" fill="#F4F4F4"/>
<path d="M346.808 142.433H341.635V129.936H338.444V125.635H341.635V120.429H346.808V125.635H350V129.936H346.808V142.433Z" fill="white"/>
<path d="M322.671 137.124H327.575C327.643 138.3 328.516 139.005 330.095 139.005C331.673 139.005 332.446 138.433 332.446 137.559C332.446 137.055 332.177 136.517 330.933 136.248L327.843 135.576C324.752 134.904 323.241 133.561 323.241 130.605C323.241 127.111 326.231 125.096 330.263 125.096C334.294 125.096 336.881 127.38 336.881 130.773H331.977C331.977 129.63 331.271 128.859 330.029 128.859C328.853 128.859 328.115 129.464 328.115 130.371C328.115 131.144 328.753 131.581 329.928 131.85L333.052 132.522C335.807 133.127 337.319 134.403 337.319 137.092C337.319 140.687 334.262 142.87 329.894 142.87C325.527 142.87 322.671 140.519 322.671 137.125V137.124Z" fill="white"/>
<path d="M312.351 142.87C307.279 142.87 303.65 139.174 303.65 134.001C303.65 128.828 307.178 125.099 312.25 125.099C317.322 125.099 320.816 128.559 320.816 134.035V135.345L308.622 135.413C308.924 137.629 310.168 138.671 312.452 138.671C314.4 138.671 315.778 137.966 316.148 136.757H320.884C320.279 140.486 316.953 142.871 312.351 142.871V142.87ZM312.284 129.297C310.235 129.297 309.092 130.204 308.689 132.22H315.677C315.677 130.438 314.366 129.297 312.284 129.297Z" fill="white"/>
<path d="M302.433 125.635V130.505H300.787C297.831 130.505 296.051 131.816 296.051 135.142V142.433H290.878V125.668H295.748L296.017 128.154C296.723 126.507 298.201 125.399 300.453 125.399C301.058 125.399 301.728 125.467 302.434 125.635H302.433Z" fill="white"/>
<path d="M269.367 134.002C269.367 128.694 273.264 125.133 278.639 125.133C284.014 125.133 287.878 128.694 287.878 134.002C287.878 139.309 283.98 142.837 278.639 142.837C273.298 142.837 269.367 139.309 269.367 134.002ZM274.574 133.968C274.574 136.521 276.219 138.201 278.639 138.201C281.059 138.201 282.671 136.522 282.671 133.968C282.671 131.414 281.025 129.768 278.639 129.768C276.253 129.768 274.574 131.447 274.574 133.968Z" fill="white"/>
<path d="M256.917 125.635H259.235V124.29C259.235 119.285 261.855 117.101 266.122 117.101C266.828 117.101 267.634 117.168 268.439 117.302V121.737H266.994C264.878 121.737 264.408 122.847 264.408 124.29V125.635H268.439V129.935H264.408V142.433H259.235V129.935H256.917V125.635Z" fill="white"/>
<path d="M244.606 142.87C241.045 142.87 238.828 140.787 238.828 137.495C238.828 134.404 241.011 132.49 245.043 132.188L249.746 131.818V131.549C249.746 129.902 248.737 129.03 246.89 129.03C244.707 129.03 243.531 129.87 243.531 131.381H239.23C239.23 127.584 242.354 125.099 247.158 125.099C251.961 125.099 254.783 127.82 254.783 132.624V142.434H250.215L249.879 140.218C249.341 141.762 247.124 142.871 244.605 142.871L244.606 142.87ZM246.42 139.04C248.401 139.04 249.779 138.065 249.779 136.151V135.243L247.159 135.478C244.909 135.68 244.102 136.184 244.102 137.258C244.102 138.468 244.841 139.038 246.42 139.038V139.04Z" fill="white"/>
<path d="M234.017 142.433H228.844V129.936H225.653V125.635H228.844V120.429H234.017V125.635H237.209V129.936H234.017V142.433Z" fill="white"/>
<path d="M213.505 142.87C209.944 142.87 207.727 140.787 207.727 137.495C207.727 134.404 209.91 132.49 213.942 132.188L218.646 131.818V131.549C218.646 129.902 217.638 129.03 215.791 129.03C213.608 129.03 212.431 129.87 212.431 131.381H208.131C208.131 127.584 211.255 125.099 216.058 125.099C220.862 125.099 223.683 127.82 223.683 132.624V142.434H219.114L218.778 140.218C218.24 141.762 216.023 142.871 213.504 142.871L213.505 142.87ZM215.319 139.04C217.3 139.04 218.678 138.065 218.678 136.151V135.243L216.058 135.478C213.808 135.68 213.001 136.184 213.001 137.258C213.001 138.468 213.741 139.038 215.319 139.038V139.04Z" fill="white"/>
<path d="M193.999 142.87C189.162 142.87 186.037 139.443 186.037 134.136C186.037 128.828 189.229 125.099 194.335 125.099C196.417 125.099 198.4 125.939 199.373 127.181V117.103H204.546V142.433H199.676L199.407 140.284C198.499 141.828 196.417 142.87 193.999 142.87ZM195.241 138.132C197.659 138.132 199.34 136.453 199.34 133.933C199.34 131.412 197.661 129.733 195.241 129.733C192.821 129.733 191.242 131.445 191.242 133.933C191.242 136.42 192.787 138.132 195.241 138.132Z" fill="white"/>
<path fill-rule="evenodd" clip-rule="evenodd" d="M154 106.512L162.344 114.856L158.454 118.746L154 114.293L149.546 118.746L145.656 114.856L154 106.512Z" fill="#02C382"/>
<path fill-rule="evenodd" clip-rule="evenodd" d="M154 117.938L163.942 127.879L160.051 131.769L154 125.718L147.949 131.769L144.059 127.886L154 117.938Z" fill="#02C382"/>
<path fill-rule="evenodd" clip-rule="evenodd" d="M154 129.37L165.545 140.916L161.655 144.806L154 137.151L146.345 144.806L142.455 140.916L154 129.37Z" fill="#02C382"/>
<path fill-rule="evenodd" clip-rule="evenodd" d="M151.25 153.489V143.097H156.75V153.496H151.25V153.489Z" fill="#F4F4F4"/>
</svg>
