<svg width="480" height="270" viewBox="0 0 480 270" fill="none" xmlns="http://www.w3.org/2000/svg">
<path d="M222.44 92.74L222.14 92.84C222.26 92.7333 222.387 92.6533 222.52 92.6C222.667 92.5467 222.833 92.52 223.02 92.52C223.447 92.52 223.8 92.66 224.08 92.94C224.36 93.22 224.5 93.6067 224.5 94.1C224.5 94.5933 224.347 95 224.04 95.32C223.733 95.64 223.327 95.8 222.82 95.8C222.273 95.8 221.833 95.6 221.5 95.2C221.167 94.7867 221 94.2533 221 93.6C221 92.6133 221.28 91.7933 221.84 91.14C222.413 90.4733 223.16 90.0933 224.08 90V91.1C223.587 91.1933 223.187 91.3733 222.88 91.64C222.587 91.9067 222.44 92.2733 222.44 92.74Z" fill="#70A6F7"/>
<path d="M257.44 91.74L257.14 91.84C257.26 91.7333 257.387 91.6533 257.52 91.6C257.667 91.5467 257.833 91.52 258.02 91.52C258.447 91.52 258.8 91.66 259.08 91.94C259.36 92.22 259.5 92.6067 259.5 93.1C259.5 93.5933 259.347 94 259.04 94.32C258.733 94.64 258.327 94.8 257.82 94.8C257.273 94.8 256.833 94.6 256.5 94.2C256.167 93.7867 256 93.2533 256 92.6C256 91.6133 256.28 90.7933 256.84 90.14C257.413 89.4733 258.16 89.0933 259.08 89V90.1C258.587 90.1933 258.187 90.3733 257.88 90.64C257.587 90.9067 257.44 91.2733 257.44 91.74Z" fill="#70A6F7"/>
<path d="M245.44 90.74L245.14 90.84C245.26 90.7333 245.387 90.6533 245.52 90.6C245.667 90.5467 245.833 90.52 246.02 90.52C246.447 90.52 246.8 90.66 247.08 90.94C247.36 91.22 247.5 91.6067 247.5 92.1C247.5 92.5933 247.347 93 247.04 93.32C246.733 93.64 246.327 93.8 245.82 93.8C245.273 93.8 244.833 93.6 244.5 93.2C244.167 92.7867 244 92.2533 244 91.6C244 90.6133 244.28 89.7933 244.84 89.14C245.413 88.4733 246.16 88.0933 247.08 88V89.1C246.587 89.1933 246.187 89.3733 245.88 89.64C245.587 89.9067 245.44 90.2733 245.44 90.74Z" fill="#70A6F7"/>
<path d="M231.44 85.74L231.14 85.84C231.26 85.7333 231.387 85.6533 231.52 85.6C231.667 85.5467 231.833 85.52 232.02 85.52C232.447 85.52 232.8 85.66 233.08 85.94C233.36 86.22 233.5 86.6067 233.5 87.1C233.5 87.5933 233.347 88 233.04 88.32C232.733 88.64 232.327 88.8 231.82 88.8C231.273 88.8 230.833 88.6 230.5 88.2C230.167 87.7867 230 87.2533 230 86.6C230 85.6133 230.28 84.7933 230.84 84.14C231.413 83.4733 232.16 83.0933 233.08 83V84.1C232.587 84.1933 232.187 84.3733 231.88 84.64C231.587 84.9067 231.44 85.2733 231.44 85.74Z" fill="#70A6F7"/>
<path d="M253.44 81.74L253.14 81.84C253.26 81.7333 253.387 81.6533 253.52 81.6C253.667 81.5467 253.833 81.52 254.02 81.52C254.447 81.52 254.8 81.66 255.08 81.94C255.36 82.22 255.5 82.6067 255.5 83.1C255.5 83.5933 255.347 84 255.04 84.32C254.733 84.64 254.327 84.8 253.82 84.8C253.273 84.8 252.833 84.6 252.5 84.2C252.167 83.7867 252 83.2533 252 82.6C252 81.6133 252.28 80.7933 252.84 80.14C253.413 79.4733 254.16 79.0933 255.08 79V80.1C254.587 80.1933 254.187 80.3733 253.88 80.64C253.587 80.9067 253.44 81.2733 253.44 81.74Z" fill="#70A6F7"/>
<path d="M218.44 80.74L218.14 80.84C218.26 80.7333 218.387 80.6533 218.52 80.6C218.667 80.5467 218.833 80.52 219.02 80.52C219.447 80.52 219.8 80.66 220.08 80.94C220.36 81.22 220.5 81.6067 220.5 82.1C220.5 82.5933 220.347 83 220.04 83.32C219.733 83.64 219.327 83.8 218.82 83.8C218.273 83.8 217.833 83.6 217.5 83.2C217.167 82.7867 217 82.2533 217 81.6C217 80.6133 217.28 79.7933 217.84 79.14C218.413 78.4733 219.16 78.0933 220.08 78V79.1C219.587 79.1933 219.187 79.3733 218.88 79.64C218.587 79.9067 218.44 80.2733 218.44 80.74Z" fill="#70A6F7"/>
</svg>
