<svg width="480" height="270" viewBox="0 0 480 270" fill="none" xmlns="http://www.w3.org/2000/svg">
<path d="M240.44 76.74L240.14 76.84C240.26 76.7333 240.387 76.6533 240.52 76.6C240.667 76.5467 240.833 76.52 241.02 76.52C241.447 76.52 241.8 76.66 242.08 76.94C242.36 77.22 242.5 77.6067 242.5 78.1C242.5 78.5933 242.347 79 242.04 79.32C241.733 79.64 241.327 79.8 240.82 79.8C240.273 79.8 239.833 79.6 239.5 79.2C239.167 78.7867 239 78.2533 239 77.6C239 76.6133 239.28 75.7933 239.84 75.14C240.413 74.4733 241.16 74.0933 242.08 74V75.1C241.587 75.1933 241.187 75.3733 240.88 75.64C240.587 75.9067 240.44 76.2733 240.44 76.74Z" fill="#70A6F7"/>
<path d="M238.44 65.74L238.14 65.84C238.26 65.7333 238.387 65.6533 238.52 65.6C238.667 65.5467 238.833 65.52 239.02 65.52C239.447 65.52 239.8 65.66 240.08 65.94C240.36 66.22 240.5 66.6067 240.5 67.1C240.5 67.5933 240.347 68 240.04 68.32C239.733 68.64 239.327 68.8 238.82 68.8C238.273 68.8 237.833 68.6 237.5 68.2C237.167 67.7867 237 67.2533 237 66.6C237 65.6133 237.28 64.7933 237.84 64.14C238.413 63.4733 239.16 63.0933 240.08 63V64.1C239.587 64.1933 239.187 64.3733 238.88 64.64C238.587 64.9067 238.44 65.2733 238.44 65.74Z" fill="#70A6F7"/>
<path d="M258.44 63.74L258.14 63.84C258.26 63.7333 258.387 63.6533 258.52 63.6C258.667 63.5467 258.833 63.52 259.02 63.52C259.447 63.52 259.8 63.66 260.08 63.94C260.36 64.22 260.5 64.6067 260.5 65.1C260.5 65.5933 260.347 66 260.04 66.32C259.733 66.64 259.327 66.8 258.82 66.8C258.273 66.8 257.833 66.6 257.5 66.2C257.167 65.7867 257 65.2533 257 64.6C257 63.6133 257.28 62.7933 257.84 62.14C258.413 61.4733 259.16 61.0933 260.08 61V62.1C259.587 62.1933 259.187 62.3733 258.88 62.64C258.587 62.9067 258.44 63.2733 258.44 63.74Z" fill="#70A6F7"/>
<path d="M220.44 65.74L220.14 65.84C220.26 65.7333 220.387 65.6533 220.52 65.6C220.667 65.5467 220.833 65.52 221.02 65.52C221.447 65.52 221.8 65.66 222.08 65.94C222.36 66.22 222.5 66.6067 222.5 67.1C222.5 67.5933 222.347 68 222.04 68.32C221.733 68.64 221.327 68.8 220.82 68.8C220.273 68.8 219.833 68.6 219.5 68.2C219.167 67.7867 219 67.2533 219 66.6C219 65.6133 219.28 64.7933 219.84 64.14C220.413 63.4733 221.16 63.0933 222.08 63V64.1C221.587 64.1933 221.187 64.3733 220.88 64.64C220.587 64.9067 220.44 65.2733 220.44 65.74Z" fill="#70A6F7"/>
<path d="M230.44 59.74L230.14 59.84C230.26 59.7333 230.387 59.6533 230.52 59.6C230.667 59.5467 230.833 59.52 231.02 59.52C231.447 59.52 231.8 59.66 232.08 59.94C232.36 60.22 232.5 60.6067 232.5 61.1C232.5 61.5933 232.347 62 232.04 62.32C231.733 62.64 231.327 62.8 230.82 62.8C230.273 62.8 229.833 62.6 229.5 62.2C229.167 61.7867 229 61.2533 229 60.6C229 59.6133 229.28 58.7933 229.84 58.14C230.413 57.4733 231.16 57.0933 232.08 57V58.1C231.587 58.1933 231.187 58.3733 230.88 58.64C230.587 58.9067 230.44 59.2733 230.44 59.74Z" fill="#70A6F7"/>
<path d="M247.44 59.74L247.14 59.84C247.26 59.7333 247.387 59.6533 247.52 59.6C247.667 59.5467 247.833 59.52 248.02 59.52C248.447 59.52 248.8 59.66 249.08 59.94C249.36 60.22 249.5 60.6067 249.5 61.1C249.5 61.5933 249.347 62 249.04 62.32C248.733 62.64 248.327 62.8 247.82 62.8C247.273 62.8 246.833 62.6 246.5 62.2C246.167 61.7867 246 61.2533 246 60.6C246 59.6133 246.28 58.7933 246.84 58.14C247.413 57.4733 248.16 57.0933 249.08 57V58.1C248.587 58.1933 248.187 58.3733 247.88 58.64C247.587 58.9067 247.44 59.2733 247.44 59.74Z" fill="#70A6F7"/>
<path d="M260.44 74.74L260.14 74.84C260.26 74.7333 260.387 74.6533 260.52 74.6C260.667 74.5467 260.833 74.52 261.02 74.52C261.447 74.52 261.8 74.66 262.08 74.94C262.36 75.22 262.5 75.6067 262.5 76.1C262.5 76.5933 262.347 77 262.04 77.32C261.733 77.64 261.327 77.8 260.82 77.8C260.273 77.8 259.833 77.6 259.5 77.2C259.167 76.7867 259 76.2533 259 75.6C259 74.6133 259.28 73.7933 259.84 73.14C260.413 72.4733 261.16 72.0933 262.08 72V73.1C261.587 73.1933 261.187 73.3733 260.88 73.64C260.587 73.9067 260.44 74.2733 260.44 74.74Z" fill="#70A6F7"/>
<path d="M249.44 70.74L249.14 70.84C249.26 70.7333 249.387 70.6533 249.52 70.6C249.667 70.5467 249.833 70.52 250.02 70.52C250.447 70.52 250.8 70.66 251.08 70.94C251.36 71.22 251.5 71.6067 251.5 72.1C251.5 72.5933 251.347 73 251.04 73.32C250.733 73.64 250.327 73.8 249.82 73.8C249.273 73.8 248.833 73.6 248.5 73.2C248.167 72.7867 248 72.2533 248 71.6C248 70.6133 248.28 69.7933 248.84 69.14C249.413 68.4733 250.16 68.0933 251.08 68V69.1C250.587 69.1933 250.187 69.3733 249.88 69.64C249.587 69.9067 249.44 70.2733 249.44 70.74Z" fill="#70A6F7"/>
<path d="M228.44 71.74L228.14 71.84C228.26 71.7333 228.387 71.6533 228.52 71.6C228.667 71.5467 228.833 71.52 229.02 71.52C229.447 71.52 229.8 71.66 230.08 71.94C230.36 72.22 230.5 72.6067 230.5 73.1C230.5 73.5933 230.347 74 230.04 74.32C229.733 74.64 229.327 74.8 228.82 74.8C228.273 74.8 227.833 74.6 227.5 74.2C227.167 73.7867 227 73.2533 227 72.6C227 71.6133 227.28 70.7933 227.84 70.14C228.413 69.4733 229.16 69.0933 230.08 69V70.1C229.587 70.1933 229.187 70.3733 228.88 70.64C228.587 70.9067 228.44 71.2733 228.44 71.74Z" fill="#70A6F7"/>
</svg>
