<svg width="480" height="270" viewBox="0 0 480 270" fill="none" xmlns="http://www.w3.org/2000/svg">
<path d="M231.44 113.74L231.14 113.84C231.26 113.733 231.387 113.653 231.52 113.6C231.667 113.547 231.833 113.52 232.02 113.52C232.447 113.52 232.8 113.66 233.08 113.94C233.36 114.22 233.5 114.607 233.5 115.1C233.5 115.593 233.347 116 233.04 116.32C232.733 116.64 232.327 116.8 231.82 116.8C231.273 116.8 230.833 116.6 230.5 116.2C230.167 115.787 230 115.253 230 114.6C230 113.613 230.28 112.793 230.84 112.14C231.413 111.473 232.16 111.093 233.08 111V112.1C232.587 112.193 232.187 112.373 231.88 112.64C231.587 112.907 231.44 113.273 231.44 113.74Z" fill="#70A6F7"/>
<path d="M244.44 115.74L244.14 115.84C244.26 115.733 244.387 115.653 244.52 115.6C244.667 115.547 244.833 115.52 245.02 115.52C245.447 115.52 245.8 115.66 246.08 115.94C246.36 116.22 246.5 116.607 246.5 117.1C246.5 117.593 246.347 118 246.04 118.32C245.733 118.64 245.327 118.8 244.82 118.8C244.273 118.8 243.833 118.6 243.5 118.2C243.167 117.787 243 117.253 243 116.6C243 115.613 243.28 114.793 243.84 114.14C244.413 113.473 245.16 113.093 246.08 113V114.1C245.587 114.193 245.187 114.373 244.88 114.64C244.587 114.907 244.44 115.273 244.44 115.74Z" fill="#70A6F7"/>
<path d="M254.44 123.74L254.14 123.84C254.26 123.733 254.387 123.653 254.52 123.6C254.667 123.547 254.833 123.52 255.02 123.52C255.447 123.52 255.8 123.66 256.08 123.94C256.36 124.22 256.5 124.607 256.5 125.1C256.5 125.593 256.347 126 256.04 126.32C255.733 126.64 255.327 126.8 254.82 126.8C254.273 126.8 253.833 126.6 253.5 126.2C253.167 125.787 253 125.253 253 124.6C253 123.613 253.28 122.793 253.84 122.14C254.413 121.473 255.16 121.093 256.08 121V122.1C255.587 122.193 255.187 122.373 254.88 122.64C254.587 122.907 254.44 123.273 254.44 123.74Z" fill="#70A6F7"/>
<path d="M222.44 120.74L222.14 120.84C222.26 120.733 222.387 120.653 222.52 120.6C222.667 120.547 222.833 120.52 223.02 120.52C223.447 120.52 223.8 120.66 224.08 120.94C224.36 121.22 224.5 121.607 224.5 122.1C224.5 122.593 224.347 123 224.04 123.32C223.733 123.64 223.327 123.8 222.82 123.8C222.273 123.8 221.833 123.6 221.5 123.2C221.167 122.787 221 122.253 221 121.6C221 120.613 221.28 119.793 221.84 119.14C222.413 118.473 223.16 118.093 224.08 118V119.1C223.587 119.193 223.187 119.373 222.88 119.64C222.587 119.907 222.44 120.273 222.44 120.74Z" fill="#70A6F7"/>
</svg>
