<svg width="480" height="270" viewBox="0 0 480 270" fill="none" xmlns="http://www.w3.org/2000/svg">
<path d="M241.44 103.74L241.14 103.84C241.26 103.733 241.387 103.653 241.52 103.6C241.667 103.547 241.833 103.52 242.02 103.52C242.447 103.52 242.8 103.66 243.08 103.94C243.36 104.22 243.5 104.607 243.5 105.1C243.5 105.593 243.347 106 243.04 106.32C242.733 106.64 242.327 106.8 241.82 106.8C241.273 106.8 240.833 106.6 240.5 106.2C240.167 105.787 240 105.253 240 104.6C240 103.613 240.28 102.793 240.84 102.14C241.413 101.473 242.16 101.093 243.08 101V102.1C242.587 102.193 242.187 102.373 241.88 102.64C241.587 102.907 241.44 103.273 241.44 103.74Z" fill="#70A6F7"/>
<path d="M216.44 100.74L216.14 100.84C216.26 100.733 216.387 100.653 216.52 100.6C216.667 100.547 216.833 100.52 217.02 100.52C217.447 100.52 217.8 100.66 218.08 100.94C218.36 101.22 218.5 101.607 218.5 102.1C218.5 102.593 218.347 103 218.04 103.32C217.733 103.64 217.327 103.8 216.82 103.8C216.273 103.8 215.833 103.6 215.5 103.2C215.167 102.787 215 102.253 215 101.6C215 100.613 215.28 99.7933 215.84 99.14C216.413 98.4733 217.16 98.0933 218.08 98V99.1C217.587 99.1933 217.187 99.3733 216.88 99.64C216.587 99.9067 216.44 100.273 216.44 100.74Z" fill="#70A6F7"/>
<path d="M251.44 100.74L251.14 100.84C251.26 100.733 251.387 100.653 251.52 100.6C251.667 100.547 251.833 100.52 252.02 100.52C252.447 100.52 252.8 100.66 253.08 100.94C253.36 101.22 253.5 101.607 253.5 102.1C253.5 102.593 253.347 103 253.04 103.32C252.733 103.64 252.327 103.8 251.82 103.8C251.273 103.8 250.833 103.6 250.5 103.2C250.167 102.787 250 102.253 250 101.6C250 100.613 250.28 99.7933 250.84 99.14C251.413 98.4733 252.16 98.0933 253.08 98V99.1C252.587 99.1933 252.187 99.3733 251.88 99.64C251.587 99.9067 251.44 100.273 251.44 100.74Z" fill="#70A6F7"/>
<path d="M256.44 108.74L256.14 108.84C256.26 108.733 256.387 108.653 256.52 108.6C256.667 108.547 256.833 108.52 257.02 108.52C257.447 108.52 257.8 108.66 258.08 108.94C258.36 109.22 258.5 109.607 258.5 110.1C258.5 110.593 258.347 111 258.04 111.32C257.733 111.64 257.327 111.8 256.82 111.8C256.273 111.8 255.833 111.6 255.5 111.2C255.167 110.787 255 110.253 255 109.6C255 108.613 255.28 107.793 255.84 107.14C256.413 106.473 257.16 106.093 258.08 106V107.1C257.587 107.193 257.187 107.373 256.88 107.64C256.587 107.907 256.44 108.273 256.44 108.74Z" fill="#70A6F7"/>
<path d="M232.44 96.74L232.14 96.84C232.26 96.7333 232.387 96.6533 232.52 96.6C232.667 96.5467 232.833 96.52 233.02 96.52C233.447 96.52 233.8 96.66 234.08 96.94C234.36 97.22 234.5 97.6067 234.5 98.1C234.5 98.5933 234.347 99 234.04 99.32C233.733 99.64 233.327 99.8 232.82 99.8C232.273 99.8 231.833 99.6 231.5 99.2C231.167 98.7867 231 98.2533 231 97.6C231 96.6133 231.28 95.7933 231.84 95.14C232.413 94.4733 233.16 94.0933 234.08 94V95.1C233.587 95.1933 233.187 95.3733 232.88 95.64C232.587 95.9067 232.44 96.2733 232.44 96.74Z" fill="#70A6F7"/>
<path d="M224.44 106.74L224.14 106.84C224.26 106.733 224.387 106.653 224.52 106.6C224.667 106.547 224.833 106.52 225.02 106.52C225.447 106.52 225.8 106.66 226.08 106.94C226.36 107.22 226.5 107.607 226.5 108.1C226.5 108.593 226.347 109 226.04 109.32C225.733 109.64 225.327 109.8 224.82 109.8C224.273 109.8 223.833 109.6 223.5 109.2C223.167 108.787 223 108.253 223 107.6C223 106.613 223.28 105.793 223.84 105.14C224.413 104.473 225.16 104.093 226.08 104V105.1C225.587 105.193 225.187 105.373 224.88 105.64C224.587 105.907 224.44 106.273 224.44 106.74Z" fill="#70A6F7"/>
</svg>
