<svg width="480" height="270" viewBox="0 0 480 270" fill="none" xmlns="http://www.w3.org/2000/svg">
<path d="M240.44 76.74L240.14 76.84C240.26 76.7333 240.387 76.6533 240.52 76.6C240.667 76.5467 240.833 76.52 241.02 76.52C241.447 76.52 241.8 76.66 242.08 76.94C242.36 77.22 242.5 77.6067 242.5 78.1C242.5 78.5933 242.347 79 242.04 79.32C241.733 79.64 241.327 79.8 240.82 79.8C240.273 79.8 239.833 79.6 239.5 79.2C239.167 78.7867 239 78.2533 239 77.6C239 76.6133 239.28 75.7933 239.84 75.14C240.413 74.4733 241.16 74.0933 242.08 74V75.1C241.587 75.1933 241.187 75.3733 240.88 75.64C240.587 75.9067 240.44 76.2733 240.44 76.74Z" fill="#70A6F7"/>
<path d="M238.44 65.74L238.14 65.84C238.26 65.7333 238.387 65.6533 238.52 65.6C238.667 65.5467 238.833 65.52 239.02 65.52C239.447 65.52 239.8 65.66 240.08 65.94C240.36 66.22 240.5 66.6067 240.5 67.1C240.5 67.5933 240.347 68 240.04 68.32C239.733 68.64 239.327 68.8 238.82 68.8C238.273 68.8 237.833 68.6 237.5 68.2C237.167 67.7867 237 67.2533 237 66.6C237 65.6133 237.28 64.7933 237.84 64.14C238.413 63.4733 239.16 63.0933 240.08 63V64.1C239.587 64.1933 239.187 64.3733 238.88 64.64C238.587 64.9067 238.44 65.2733 238.44 65.74Z" fill="#70A6F7"/>
<path d="M258.44 63.74L258.14 63.84C258.26 63.7333 258.387 63.6533 258.52 63.6C258.667 63.5467 258.833 63.52 259.02 63.52C259.447 63.52 259.8 63.66 260.08 63.94C260.36 64.22 260.5 64.6067 260.5 65.1C260.5 65.5933 260.347 66 260.04 66.32C259.733 66.64 259.327 66.8 258.82 66.8C258.273 66.8 257.833 66.6 257.5 66.2C257.167 65.7867 257 65.2533 257 64.6C257 63.6133 257.28 62.7933 257.84 62.14C258.413 61.4733 259.16 61.0933 260.08 61V62.1C259.587 62.1933 259.187 62.3733 258.88 62.64C258.587 62.9067 258.44 63.2733 258.44 63.74Z" fill="#70A6F7"/>
<path d="M220.44 65.74L220.14 65.84C220.26 65.7333 220.387 65.6533 220.52 65.6C220.667 65.5467 220.833 65.52 221.02 65.52C221.447 65.52 221.8 65.66 222.08 65.94C222.36 66.22 222.5 66.6067 222.5 67.1C222.5 67.5933 222.347 68 222.04 68.32C221.733 68.64 221.327 68.8 220.82 68.8C220.273 68.8 219.833 68.6 219.5 68.2C219.167 67.7867 219 67.2533 219 66.6C219 65.6133 219.28 64.7933 219.84 64.14C220.413 63.4733 221.16 63.0933 222.08 63V64.1C221.587 64.1933 221.187 64.3733 220.88 64.64C220.587 64.9067 220.44 65.2733 220.44 65.74Z" fill="#70A6F7"/>
<path d="M230.44 59.74L230.14 59.84C230.26 59.7333 230.387 59.6533 230.52 59.6C230.667 59.5467 230.833 59.52 231.02 59.52C231.447 59.52 231.8 59.66 232.08 59.94C232.36 60.22 232.5 60.6067 232.5 61.1C232.5 61.5933 232.347 62 232.04 62.32C231.733 62.64 231.327 62.8 230.82 62.8C230.273 62.8 229.833 62.6 229.5 62.2C229.167 61.7867 229 61.2533 229 60.6C229 59.6133 229.28 58.7933 229.84 58.14C230.413 57.4733 231.16 57.0933 232.08 57V58.1C231.587 58.1933 231.187 58.3733 230.88 58.64C230.587 58.9067 230.44 59.2733 230.44 59.74Z" fill="#70A6F7"/>
<path d="M247.44 59.74L247.14 59.84C247.26 59.7333 247.387 59.6533 247.52 59.6C247.667 59.5467 247.833 59.52 248.02 59.52C248.447 59.52 248.8 59.66 249.08 59.94C249.36 60.22 249.5 60.6067 249.5 61.1C249.5 61.5933 249.347 62 249.04 62.32C248.733 62.64 248.327 62.8 247.82 62.8C247.273 62.8 246.833 62.6 246.5 62.2C246.167 61.7867 246 61.2533 246 60.6C246 59.6133 246.28 58.7933 246.84 58.14C247.413 57.4733 248.16 57.0933 249.08 57V58.1C248.587 58.1933 248.187 58.3733 247.88 58.64C247.587 58.9067 247.44 59.2733 247.44 59.74Z" fill="#70A6F7"/>
<path d="M260.44 74.74L260.14 74.84C260.26 74.7333 260.387 74.6533 260.52 74.6C260.667 74.5467 260.833 74.52 261.02 74.52C261.447 74.52 261.8 74.66 262.08 74.94C262.36 75.22 262.5 75.6067 262.5 76.1C262.5 76.5933 262.347 77 262.04 77.32C261.733 77.64 261.327 77.8 260.82 77.8C260.273 77.8 259.833 77.6 259.5 77.2C259.167 76.7867 259 76.2533 259 75.6C259 74.6133 259.28 73.7933 259.84 73.14C260.413 72.4733 261.16 72.0933 262.08 72V73.1C261.587 73.1933 261.187 73.3733 260.88 73.64C260.587 73.9067 260.44 74.2733 260.44 74.74Z" fill="#70A6F7"/>
<path d="M249.44 70.74L249.14 70.84C249.26 70.7333 249.387 70.6533 249.52 70.6C249.667 70.5467 249.833 70.52 250.02 70.52C250.447 70.52 250.8 70.66 251.08 70.94C251.36 71.22 251.5 71.6067 251.5 72.1C251.5 72.5933 251.347 73 251.04 73.32C250.733 73.64 250.327 73.8 249.82 73.8C249.273 73.8 248.833 73.6 248.5 73.2C248.167 72.7867 248 72.2533 248 71.6C248 70.6133 248.28 69.7933 248.84 69.14C249.413 68.4733 250.16 68.0933 251.08 68V69.1C250.587 69.1933 250.187 69.3733 249.88 69.64C249.587 69.9067 249.44 70.2733 249.44 70.74Z" fill="#70A6F7"/>
<path d="M228.44 71.74L228.14 71.84C228.26 71.7333 228.387 71.6533 228.52 71.6C228.667 71.5467 228.833 71.52 229.02 71.52C229.447 71.52 229.8 71.66 230.08 71.94C230.36 72.22 230.5 72.6067 230.5 73.1C230.5 73.5933 230.347 74 230.04 74.32C229.733 74.64 229.327 74.8 228.82 74.8C228.273 74.8 227.833 74.6 227.5 74.2C227.167 73.7867 227 73.2533 227 72.6C227 71.6133 227.28 70.7933 227.84 70.14C228.413 69.4733 229.16 69.0933 230.08 69V70.1C229.587 70.1933 229.187 70.3733 228.88 70.64C228.587 70.9067 228.44 71.2733 228.44 71.74Z" fill="#70A6F7"/>
<path d="M222.44 92.74L222.14 92.84C222.26 92.7333 222.387 92.6533 222.52 92.6C222.667 92.5467 222.833 92.52 223.02 92.52C223.447 92.52 223.8 92.66 224.08 92.94C224.36 93.22 224.5 93.6067 224.5 94.1C224.5 94.5933 224.347 95 224.04 95.32C223.733 95.64 223.327 95.8 222.82 95.8C222.273 95.8 221.833 95.6 221.5 95.2C221.167 94.7867 221 94.2533 221 93.6C221 92.6133 221.28 91.7933 221.84 91.14C222.413 90.4733 223.16 90.0933 224.08 90V91.1C223.587 91.1933 223.187 91.3733 222.88 91.64C222.587 91.9067 222.44 92.2733 222.44 92.74Z" fill="#70A6F7"/>
<path d="M257.44 91.74L257.14 91.84C257.26 91.7333 257.387 91.6533 257.52 91.6C257.667 91.5467 257.833 91.52 258.02 91.52C258.447 91.52 258.8 91.66 259.08 91.94C259.36 92.22 259.5 92.6067 259.5 93.1C259.5 93.5933 259.347 94 259.04 94.32C258.733 94.64 258.327 94.8 257.82 94.8C257.273 94.8 256.833 94.6 256.5 94.2C256.167 93.7867 256 93.2533 256 92.6C256 91.6133 256.28 90.7933 256.84 90.14C257.413 89.4733 258.16 89.0933 259.08 89V90.1C258.587 90.1933 258.187 90.3733 257.88 90.64C257.587 90.9067 257.44 91.2733 257.44 91.74Z" fill="#70A6F7"/>
<path d="M245.44 90.74L245.14 90.84C245.26 90.7333 245.387 90.6533 245.52 90.6C245.667 90.5467 245.833 90.52 246.02 90.52C246.447 90.52 246.8 90.66 247.08 90.94C247.36 91.22 247.5 91.6067 247.5 92.1C247.5 92.5933 247.347 93 247.04 93.32C246.733 93.64 246.327 93.8 245.82 93.8C245.273 93.8 244.833 93.6 244.5 93.2C244.167 92.7867 244 92.2533 244 91.6C244 90.6133 244.28 89.7933 244.84 89.14C245.413 88.4733 246.16 88.0933 247.08 88V89.1C246.587 89.1933 246.187 89.3733 245.88 89.64C245.587 89.9067 245.44 90.2733 245.44 90.74Z" fill="#70A6F7"/>
<path d="M231.44 85.74L231.14 85.84C231.26 85.7333 231.387 85.6533 231.52 85.6C231.667 85.5467 231.833 85.52 232.02 85.52C232.447 85.52 232.8 85.66 233.08 85.94C233.36 86.22 233.5 86.6067 233.5 87.1C233.5 87.5933 233.347 88 233.04 88.32C232.733 88.64 232.327 88.8 231.82 88.8C231.273 88.8 230.833 88.6 230.5 88.2C230.167 87.7867 230 87.2533 230 86.6C230 85.6133 230.28 84.7933 230.84 84.14C231.413 83.4733 232.16 83.0933 233.08 83V84.1C232.587 84.1933 232.187 84.3733 231.88 84.64C231.587 84.9067 231.44 85.2733 231.44 85.74Z" fill="#70A6F7"/>
<path d="M253.44 81.74L253.14 81.84C253.26 81.7333 253.387 81.6533 253.52 81.6C253.667 81.5467 253.833 81.52 254.02 81.52C254.447 81.52 254.8 81.66 255.08 81.94C255.36 82.22 255.5 82.6067 255.5 83.1C255.5 83.5933 255.347 84 255.04 84.32C254.733 84.64 254.327 84.8 253.82 84.8C253.273 84.8 252.833 84.6 252.5 84.2C252.167 83.7867 252 83.2533 252 82.6C252 81.6133 252.28 80.7933 252.84 80.14C253.413 79.4733 254.16 79.0933 255.08 79V80.1C254.587 80.1933 254.187 80.3733 253.88 80.64C253.587 80.9067 253.44 81.2733 253.44 81.74Z" fill="#70A6F7"/>
<path d="M218.44 80.74L218.14 80.84C218.26 80.7333 218.387 80.6533 218.52 80.6C218.667 80.5467 218.833 80.52 219.02 80.52C219.447 80.52 219.8 80.66 220.08 80.94C220.36 81.22 220.5 81.6067 220.5 82.1C220.5 82.5933 220.347 83 220.04 83.32C219.733 83.64 219.327 83.8 218.82 83.8C218.273 83.8 217.833 83.6 217.5 83.2C217.167 82.7867 217 82.2533 217 81.6C217 80.6133 217.28 79.7933 217.84 79.14C218.413 78.4733 219.16 78.0933 220.08 78V79.1C219.587 79.1933 219.187 79.3733 218.88 79.64C218.587 79.9067 218.44 80.2733 218.44 80.74Z" fill="#70A6F7"/>
<path d="M241.44 103.74L241.14 103.84C241.26 103.733 241.387 103.653 241.52 103.6C241.667 103.547 241.833 103.52 242.02 103.52C242.447 103.52 242.8 103.66 243.08 103.94C243.36 104.22 243.5 104.607 243.5 105.1C243.5 105.593 243.347 106 243.04 106.32C242.733 106.64 242.327 106.8 241.82 106.8C241.273 106.8 240.833 106.6 240.5 106.2C240.167 105.787 240 105.253 240 104.6C240 103.613 240.28 102.793 240.84 102.14C241.413 101.473 242.16 101.093 243.08 101V102.1C242.587 102.193 242.187 102.373 241.88 102.64C241.587 102.907 241.44 103.273 241.44 103.74Z" fill="#70A6F7"/>
<path d="M216.44 100.74L216.14 100.84C216.26 100.733 216.387 100.653 216.52 100.6C216.667 100.547 216.833 100.52 217.02 100.52C217.447 100.52 217.8 100.66 218.08 100.94C218.36 101.22 218.5 101.607 218.5 102.1C218.5 102.593 218.347 103 218.04 103.32C217.733 103.64 217.327 103.8 216.82 103.8C216.273 103.8 215.833 103.6 215.5 103.2C215.167 102.787 215 102.253 215 101.6C215 100.613 215.28 99.7933 215.84 99.14C216.413 98.4733 217.16 98.0933 218.08 98V99.1C217.587 99.1933 217.187 99.3733 216.88 99.64C216.587 99.9067 216.44 100.273 216.44 100.74Z" fill="#70A6F7"/>
<path d="M251.44 100.74L251.14 100.84C251.26 100.733 251.387 100.653 251.52 100.6C251.667 100.547 251.833 100.52 252.02 100.52C252.447 100.52 252.8 100.66 253.08 100.94C253.36 101.22 253.5 101.607 253.5 102.1C253.5 102.593 253.347 103 253.04 103.32C252.733 103.64 252.327 103.8 251.82 103.8C251.273 103.8 250.833 103.6 250.5 103.2C250.167 102.787 250 102.253 250 101.6C250 100.613 250.28 99.7933 250.84 99.14C251.413 98.4733 252.16 98.0933 253.08 98V99.1C252.587 99.1933 252.187 99.3733 251.88 99.64C251.587 99.9067 251.44 100.273 251.44 100.74Z" fill="#70A6F7"/>
<path d="M256.44 108.74L256.14 108.84C256.26 108.733 256.387 108.653 256.52 108.6C256.667 108.547 256.833 108.52 257.02 108.52C257.447 108.52 257.8 108.66 258.08 108.94C258.36 109.22 258.5 109.607 258.5 110.1C258.5 110.593 258.347 111 258.04 111.32C257.733 111.64 257.327 111.8 256.82 111.8C256.273 111.8 255.833 111.6 255.5 111.2C255.167 110.787 255 110.253 255 109.6C255 108.613 255.28 107.793 255.84 107.14C256.413 106.473 257.16 106.093 258.08 106V107.1C257.587 107.193 257.187 107.373 256.88 107.64C256.587 107.907 256.44 108.273 256.44 108.74Z" fill="#70A6F7"/>
<path d="M232.44 96.74L232.14 96.84C232.26 96.7333 232.387 96.6533 232.52 96.6C232.667 96.5467 232.833 96.52 233.02 96.52C233.447 96.52 233.8 96.66 234.08 96.94C234.36 97.22 234.5 97.6067 234.5 98.1C234.5 98.5933 234.347 99 234.04 99.32C233.733 99.64 233.327 99.8 232.82 99.8C232.273 99.8 231.833 99.6 231.5 99.2C231.167 98.7867 231 98.2533 231 97.6C231 96.6133 231.28 95.7933 231.84 95.14C232.413 94.4733 233.16 94.0933 234.08 94V95.1C233.587 95.1933 233.187 95.3733 232.88 95.64C232.587 95.9067 232.44 96.2733 232.44 96.74Z" fill="#70A6F7"/>
<path d="M224.44 106.74L224.14 106.84C224.26 106.733 224.387 106.653 224.52 106.6C224.667 106.547 224.833 106.52 225.02 106.52C225.447 106.52 225.8 106.66 226.08 106.94C226.36 107.22 226.5 107.607 226.5 108.1C226.5 108.593 226.347 109 226.04 109.32C225.733 109.64 225.327 109.8 224.82 109.8C224.273 109.8 223.833 109.6 223.5 109.2C223.167 108.787 223 108.253 223 107.6C223 106.613 223.28 105.793 223.84 105.14C224.413 104.473 225.16 104.093 226.08 104V105.1C225.587 105.193 225.187 105.373 224.88 105.64C224.587 105.907 224.44 106.273 224.44 106.74Z" fill="#70A6F7"/>
<path d="M231.44 113.74L231.14 113.84C231.26 113.733 231.387 113.653 231.52 113.6C231.667 113.547 231.833 113.52 232.02 113.52C232.447 113.52 232.8 113.66 233.08 113.94C233.36 114.22 233.5 114.607 233.5 115.1C233.5 115.593 233.347 116 233.04 116.32C232.733 116.64 232.327 116.8 231.82 116.8C231.273 116.8 230.833 116.6 230.5 116.2C230.167 115.787 230 115.253 230 114.6C230 113.613 230.28 112.793 230.84 112.14C231.413 111.473 232.16 111.093 233.08 111V112.1C232.587 112.193 232.187 112.373 231.88 112.64C231.587 112.907 231.44 113.273 231.44 113.74Z" fill="#70A6F7"/>
<path d="M244.44 115.74L244.14 115.84C244.26 115.733 244.387 115.653 244.52 115.6C244.667 115.547 244.833 115.52 245.02 115.52C245.447 115.52 245.8 115.66 246.08 115.94C246.36 116.22 246.5 116.607 246.5 117.1C246.5 117.593 246.347 118 246.04 118.32C245.733 118.64 245.327 118.8 244.82 118.8C244.273 118.8 243.833 118.6 243.5 118.2C243.167 117.787 243 117.253 243 116.6C243 115.613 243.28 114.793 243.84 114.14C244.413 113.473 245.16 113.093 246.08 113V114.1C245.587 114.193 245.187 114.373 244.88 114.64C244.587 114.907 244.44 115.273 244.44 115.74Z" fill="#70A6F7"/>
<path d="M254.44 123.74L254.14 123.84C254.26 123.733 254.387 123.653 254.52 123.6C254.667 123.547 254.833 123.52 255.02 123.52C255.447 123.52 255.8 123.66 256.08 123.94C256.36 124.22 256.5 124.607 256.5 125.1C256.5 125.593 256.347 126 256.04 126.32C255.733 126.64 255.327 126.8 254.82 126.8C254.273 126.8 253.833 126.6 253.5 126.2C253.167 125.787 253 125.253 253 124.6C253 123.613 253.28 122.793 253.84 122.14C254.413 121.473 255.16 121.093 256.08 121V122.1C255.587 122.193 255.187 122.373 254.88 122.64C254.587 122.907 254.44 123.273 254.44 123.74Z" fill="#70A6F7"/>
<path d="M222.44 120.74L222.14 120.84C222.26 120.733 222.387 120.653 222.52 120.6C222.667 120.547 222.833 120.52 223.02 120.52C223.447 120.52 223.8 120.66 224.08 120.94C224.36 121.22 224.5 121.607 224.5 122.1C224.5 122.593 224.347 123 224.04 123.32C223.733 123.64 223.327 123.8 222.82 123.8C222.273 123.8 221.833 123.6 221.5 123.2C221.167 122.787 221 122.253 221 121.6C221 120.613 221.28 119.793 221.84 119.14C222.413 118.473 223.16 118.093 224.08 118V119.1C223.587 119.193 223.187 119.373 222.88 119.64C222.587 119.907 222.44 120.273 222.44 120.74Z" fill="#70A6F7"/>
</svg>
