<svg width="480" height="270" viewBox="0 0 480 270" fill="none" xmlns="http://www.w3.org/2000/svg">
<path d="M255.236 149.482H252.698V145.585H254.116C254.911 145.585 255.435 145.088 255.435 143.968V137.897C255.435 135.326 256.588 133.934 258.735 133.245C256.588 132.549 255.435 131.164 255.435 128.592V122.521C255.435 121.401 254.905 120.904 254.116 120.904H252.698V117.007H255.236C258.073 117.007 260.054 118.757 260.054 121.527V127.896C260.054 130.143 261.406 131.263 263.719 131.263V135.226C261.406 135.226 260.054 136.346 260.054 138.593V144.962C260.054 147.733 258.073 149.482 255.236 149.482Z" fill="#F4F4F4"/>
</svg>
