<svg width="480" height="270" viewBox="0 0 480 270" fill="none" xmlns="http://www.w3.org/2000/svg">
<path fill-rule="evenodd" clip-rule="evenodd" d="M270 129.512L278.344 137.856L274.454 141.746L270 137.293L265.546 141.746L261.656 137.856L270 129.512Z" fill="#02C382"/>
<path fill-rule="evenodd" clip-rule="evenodd" d="M267.25 153.489V143.097H272.75V153.496H267.25V153.489Z" fill="#F4F4F4"/>
<path fill-rule="evenodd" clip-rule="evenodd" d="M240 106.512L248.344 114.856L244.454 118.746L240 114.293L235.546 118.746L231.656 114.856L240 106.512Z" fill="#02C382"/>
<path fill-rule="evenodd" clip-rule="evenodd" d="M240 117.938L249.942 127.879L246.051 131.769L240 125.718L233.949 131.769L230.059 127.886L240 117.938Z" fill="#02C382"/>
<path fill-rule="evenodd" clip-rule="evenodd" d="M240 129.37L251.545 140.916L247.655 144.806L240 137.151L232.345 144.806L228.455 140.916L240 129.37Z" fill="#02C382"/>
<path fill-rule="evenodd" clip-rule="evenodd" d="M237.25 153.489V143.097H242.75V153.496H237.25V153.489Z" fill="#F4F4F4"/>
<path fill-rule="evenodd" clip-rule="evenodd" d="M210 117.512L218.344 125.856L214.454 129.746L210 125.293L205.546 129.746L201.656 125.856L210 117.512Z" fill="#02C382"/>
<path fill-rule="evenodd" clip-rule="evenodd" d="M210 128.938L219.942 138.879L216.051 142.769L210 136.718L203.949 142.769L200.059 138.886L210 128.938Z" fill="#02C382"/>
<path fill-rule="evenodd" clip-rule="evenodd" d="M207.25 153.489V143.097H212.75V153.496H207.25V153.489Z" fill="#F4F4F4"/>
</svg>
